<?xml version="1.0" encoding="utf-8"?>
<svg version="1.1" xmlns:xlink="http://www.w3.org/1999/xlink" width="13px" height="9px" xmlns="http://www.w3.org/2000/svg">
  <g transform="matrix(1 0 0 1 -15 -68 )">
    <path d="M 12.934899068323 0.653209459459461  C 12.9565819577996 0.57291458764964  12.95814230067 0.488479817698186  12.9394409937888 0.407432432432433  C 12.8764209494683 0.13485697311607  12.6053133347667 -0.0348361028885278  12.333850931677 0.0283783783783785  L 9.70256211180124 0.640540540540541  C 9.4736878487714 0.693684585674356  9.31159888660945 0.898378989240872  9.31159888660945 1.13426931225738  C 9.31159888660945 1.26561958979492  9.36238855523728 1.39183845144811  9.45326086956522 1.48631756756757  L 10.0275621118012 2.08277027027027  L 6.95923913043478 4.83141891891892  L 5.36603260869565 3.31621621621622  C 5.16417228765731 3.12435166345921  4.84581380256138 3.1325079780985  4.65395962732919 3.33445945945946  L 1.23590838509317 6.93344594594595  C 1.1680221685596 6.91920452059166  1.09885497406816 6.91202692479728  1.02950311457535 6.91202692479728  C 0.472072854652962 6.91202692479728  0.0201863443890105 7.36579238104985  0.0201863443890105 7.9255404383108  C 0.0201863443890105 8.48528849557173  0.472072854652962 8.93905395182431  1.02950311457535 8.93905395182431  C 1.58688078043748 8.93905395182431  2.03874550253345 8.48537091520745  2.0388198757764 7.92567567567568  C 2.0388198757764 7.81570945945946  2.01711956521739 7.71233108108108  1.98482142857143 7.61351351351351  L 5.03699534161491 4.39966216216216  L 6.60194099378882 5.8875  C 6.79236454052818 6.06847117739329  7.08907653997163 6.07287540103218  7.28474378881988 5.89763513513514  L 10.7290372670807 2.8125  L 11.3835791925466 3.49307432432433  C 11.4786758580126 3.59195027748469  11.6096935427634 3.64779170093951  11.7465841308293 3.64779170093951  C 11.9748260135254 3.64779170093951  12.1746561987455 3.49396291007642  12.2339285714286 3.27263513513513  L 12.934899068323 0.653209459459461  Z " fill-rule="nonzero" fill="#000000" stroke="none" transform="matrix(1 0 0 1 15 68 )" />
  </g>
</svg>