<?xml version="1.0" encoding="utf-8"?>
<svg version="1.1" xmlns:xlink="http://www.w3.org/1999/xlink" width="15px" height="14px" xmlns="http://www.w3.org/2000/svg">
  <g transform="matrix(1 0 0 1 -13 -67 )">
    <path d="M 14.9573863636364 6.54112215909091  C 14.9573863636364 6.26654877494208  14.7189016778218 6.04396306818182  14.4247159090909 6.04396306818182  C 14.13053014036 6.04396306818182  13.8920454545455 6.26654877494208  13.8920454545455 6.54112215909091  L 13.8920454545455 10.4801136363636  C 13.8920454545455 10.7546870205125  13.6535607687309 10.9772727272727  13.359375 11  L 1.640625 11  C 1.34643923126911 10.9772727272727  1.10795454545455 10.7546870205125  1.10795454545455 10.4801136363636  L 1.10795454545455 1.53125  C 1.10795454545455 1.25667661585117  1.34643923126911 1.03409090909091  1.640625 1.03409090909091  L 10.4738991477273 1.03409090909091  C 10.7680849164582 1.03409090909091  11.0065696022727 0.81150520233065  11.0065696022727 0.536931818181818  C 11.0065696022727 0.262358434032986  10.7680849164582 0.0397727272727273  10.4738991477273 0.0397727272727273  L 1.640625 0.0397727272727273  C 0.758067693807326 0.0397727272727273  0.0426136363636364 0.707529847553504  0.0426136363636364 1.53125  L 0.0426136363636364 10.4801136363636  C 0.0426136363636364 11.3038337888101  0.758067693807326 11.9715909090909  1.640625 12  L 13.359375 12  C 14.2419323061927 11.9715909090909  14.9573863636364 11.3038337888101  14.9573863636364 10.4801136363636  L 14.9573863636364 6.54112215909091  Z M 14.1583806818182 12.9659090909091  C 14.1583806818182 12.9659090909091  14.1583806818182 12.9659090909091  14.1583806818182 13  L 0.841619318181818 13  C 0.841619318181818 12.9659090909091  0.841619318181818 12.9659090909091  0.841619318181818 12.9659090909091  C 0.547433549450927 12.9659090909091  0.308948863636364 13.1884947976694  0.308948863636364 13.4630681818182  C 0.308948863636364 13.737641565967  0.547433549450927 13.9602272727273  0.841619318181818 13.9602272727273  C 0.841619318181818 13.9602272727273  0.841619318181818 13.9602272727273  0.841619318181818 14  L 14.1583806818182 14  C 14.1583806818182 13.9602272727273  14.1583806818182 13.9602272727273  14.1583806818182 13.9602272727273  C 14.4525664505491 13.9602272727273  14.6910511363636 13.737641565967  14.6910511363636 13.4630681818182  C 14.6910511363636 13.1884947976694  14.4525664505491 12.9659090909091  14.1583806818182 12.9659090909091  Z " fill-rule="nonzero" fill="#000000" stroke="none" transform="matrix(1 0 0 1 13 67 )" />
  </g>
</svg>