<?xml version="1.0" encoding="utf-8"?>
<svg version="1.1" xmlns:xlink="http://www.w3.org/1999/xlink" width="10px" height="10px" xmlns="http://www.w3.org/2000/svg">
  <g transform="matrix(1 0 0 1 -132 -23 )">
    <path d="M 9.605712890625 2.120361328125  C 10.081787109375 1.644287109375  10.081787109375 0.871582031250001  9.605712890625 0.394287109375  C 9.12841796875 -0.0830078125  8.355712890625 -0.0830078125  7.879638671875 0.394287109375  L 5.863037109375 2.410888671875  C 5.3857421875 2.88818359375  4.613037109375 2.88818359375  4.136962890625 2.410888671875  L 2.120361328125 0.394287109375  C 1.64306640625 -0.0830078125  0.870361328125 -0.0830078125  0.394287109375 0.394287109375  C -0.0830078124999998 0.87158203125  -0.0830078124999998 1.644287109375  0.394287109375 2.120361328125  L 2.410888671875 4.136962890625  C 2.88818359375 4.6142578125  2.88818359375 5.386962890625  2.410888671875 5.863037109375  L 0.394287109375 7.879638671875  C -0.0830078125 8.35693359375  -0.0830078125 9.129638671875  0.394287109375 9.605712890625  C 0.87158203125 10.0830078125  1.644287109375 10.0830078125  2.120361328125 9.605712890625  L 4.136962890625 7.589111328125  C 4.6142578125 7.11181640625  5.386962890625 7.11181640625  5.863037109375 7.589111328125  L 7.879638671875 9.605712890625  C 8.35693359375 10.0830078125  9.129638671875 10.0830078125  9.605712890625 9.605712890625  C 10.0830078125 9.12841796875  10.0830078125 8.355712890625  9.605712890625 7.879638671875  L 7.589111328125 5.863037109375  C 7.11181640625 5.3857421875  7.11181640625 4.613037109375  7.589111328125 4.136962890625  L 9.605712890625 2.120361328125  Z " fill-rule="nonzero" fill="#7f7f7f" stroke="none" transform="matrix(1 0 0 1 132 23 )" />
  </g>
</svg>