<?xml version="1.0" encoding="utf-8"?>
<svg version="1.1" xmlns:xlink="http://www.w3.org/1999/xlink" width="10px" height="10px" xmlns="http://www.w3.org/2000/svg">
  <g transform="matrix(1 0 0 1 -38 -216 )">
    <path d="M 1.20713141025641 9.98452882713608  C 0.92061426009943 9.9841857607724  0.688530321325536 9.75476153507653  0.688530321325536 9.47187097626724  C 0.688530321325536 9.46882331999929  0.688557846354333 9.46577572431743  0.688612893129006 9.46272855270965  L 0.688612893129006 6.79746835443038  C 0.685292988363916 6.77379040902048  0.683627134665464 6.74991497866751  0.683627134665464 6.72601122163191  C 0.683627134665464 6.43821726744017  0.91992129634546 6.20491417109789  1.21140491661659 6.20491417109789  C 1.50288853688771 6.20491417109789  1.73918269856771 6.43821726744017  1.73918269856771 6.72601122163191  C 1.73918269856771 6.74991497866751  1.73751684486926 6.77379040902048  1.73419694010417 6.79746835443038  L 1.73419694010417 9.46272855270965  C 1.73419822342299 9.46319737168939  1.73419886508329 9.46366619216749  1.73419886508329 9.46413501285948  C 1.73419886508329 9.75154058039264  1.49822358953193 9.98452882713955  1.20713333523553 9.98452882713955  Z M 3.80755875651042 9.98452882713608  C 3.52132038517565 9.98379842972184  3.28966989556276 9.75448835600422  3.28966989556276 9.47187231136574  C 3.28966989556276 9.46882420998533  3.28969742863225 9.46577616921751  3.28975249148638 9.46272855270965  L 3.28975249148638 5.24191280162184  C 3.32345458045792 4.98219846801018  3.54735028590103 4.7876530004778  3.81254451497396 4.7876530004778  C 4.07773874404689 4.7876530004778  4.30163444948999 4.98219846801018  4.33533653846154 5.24191280162184  L 4.33533653846154 9.45428973002373  C 4.33539942611458 9.45757112661921  4.33543087205166 9.46085303718976  4.33543087205166 9.46413502119101  C 4.33543087205166 9.75154058872417  4.09945559650031 9.98452883547107  3.8083653422039 9.98452883547107  Z M 6.40869836738782 9.98452882713608  C 6.12245999114868 9.98379843652367  5.89080949392071 9.75448836079697  5.89080949392071 9.4718723113338  C 5.89080949392071 9.46882420996401  5.89083702699 9.46577616920689  5.89089208984375 9.46272855270965  L 5.89089208984375 7.60900140921677  C 5.9245941788153 7.34928707560512  6.1484898842584 7.15474160807274  6.41368411333133 7.15474160807274  C 6.67887834240426 7.15474160807274  6.90277404784736 7.34928707560512  6.93647613681891 7.60900140921677  L 6.93647613681891 9.46272855270965  C 6.93647742013774 9.4631973716895  6.93647806179803 9.46366619216738  6.93647806179803 9.46413501285948  C 6.93647806179803 9.75154058039264  6.70050278624668 9.98452882713955  6.40941253195027 9.98452882713955  Z M 9.01055021784856 9.98382560324367  L 9.00983796574519 9.98452882713608  C 8.72332081558821 9.9841857607724  8.49123687681432 9.75476153507653  8.49123687681432 9.47187097626724  C 8.49123687681432 9.46882331999925  8.49126440184311 9.46577572431747  8.49131944861779 9.46272855270965  L 8.49131944861779 6.04500703372231  C 8.48823641452393 6.02217677013426  8.48668980994591 5.9991698064425  8.48668980994591 5.97613750472709  C 8.48668980994591 5.68834355053535  8.72298397162591 5.45504045419307  9.01446759189703 5.45504045419307  C 9.30595121216816 5.45504045419307  9.54224537384816 5.68834355053535  9.54224537384816 5.97613750472709  C 9.54224537384816 5.9991698064425  9.54069876927014 6.02217677013426  9.53761573517628 6.04500703372231  L 9.53761573517628 9.50562587767009  C 9.51530470468352 9.77643581895185  9.28573652216626 9.98472006117808  9.01055021784856 9.98382560324367  Z M 0.878071577023237 4.70323488182358  C 0.777306326902223 4.78083244661079  0.651733574519949 4.82024763562868  0.524082982772436 4.81434598744066  C 0.357999826954426 4.81697717133213  0.200693037265658 4.74088823623075  0.101006059695512 4.60970464547073  C -0.0662427615339367 4.37373217171403  -0.00822302170064313 4.04859077997815  0.230635679587339 3.88326300435127  L 3.98918269230769 1.02109705053402  C 4.18063461798171 0.877144576947528  4.44587891617294 0.877144576947528  4.63733084184696 1.02109705053402  L 6.36596331630609 2.41350211382516  L 9.15727386318109 0.114627286886867  C 9.24699714078455 0.0495662783752744  9.35541212641933 0.0144815819372502  9.46673343575221 0.0144815819372502  C 9.75546349420027 0.0144815819372502  9.98952545297977 0.245580731111949  9.98952545297977 0.530655978693579  C 9.98952545297977 0.670121332226515  9.93236657083721 0.803651589316022  9.83106303836138 0.900843885977057  L 6.72849893579728 3.4817158944818  C 6.536077103059 3.64095506849156  6.25567859355558 3.64095506849156  6.06325676081731 3.4817158944818  L 4.33533653846154 2.08016877225079  L 0.878071577023237 4.70323488182358  Z " fill-rule="nonzero" fill="#494c5b" stroke="none" transform="matrix(1 0 0 1 38 216 )" />
  </g>
</svg>