<?xml version="1.0" encoding="utf-8"?>
<svg version="1.1" xmlns:xlink="http://www.w3.org/1999/xlink" width="18px" height="15px" xmlns="http://www.w3.org/2000/svg">
  <g transform="matrix(1 0 0 1 -884 -40 )">
    <path d="M 11.5714285714286 11.748046875  C 11.6584821428571 11.748046875  11.7354910714286 11.7154947916667  11.8024553571429 11.650390625  L 13.2689732142857 10.224609375  C 13.3359375 10.1595052083333  13.3694196428571 10.0846354166667  13.3694196428571 10  C 13.3694196428571 9.91536458333333  13.3359375 9.84049479166666  13.2689732142857 9.775390625  L 10.9285714285714 7.5  L 13.2689732142857 5.224609375  C 13.3359375 5.15950520833333  13.3694196428571 5.08463541666667  13.3694196428571 5  C 13.3694196428571 4.91536458333333  13.3359375 4.84049479166667  13.2689732142857 4.775390625  L 11.8024553571429 3.349609375  C 11.7354910714286 3.28450520833333  11.6584821428571 3.251953125  11.5714285714286 3.251953125  C 11.484375 3.251953125  11.4073660714286 3.28450520833333  11.3404017857143 3.349609375  L 9 5.625  L 6.65959821428571 3.349609375  C 6.59263392857143 3.28450520833333  6.515625 3.251953125  6.42857142857143 3.251953125  C 6.34151785714286 3.251953125  6.26450892857143 3.28450520833333  6.19754464285714 3.349609375  L 4.73102678571429 4.775390625  C 4.6640625 4.84049479166667  4.63058035714286 4.91536458333333  4.63058035714286 5  C 4.63058035714286 5.08463541666667  4.6640625 5.15950520833333  4.73102678571429 5.224609375  L 7.07142857142857 7.5  L 4.73102678571429 9.775390625  C 4.6640625 9.84049479166666  4.63058035714286 9.91536458333333  4.63058035714286 10  C 4.63058035714286 10.0846354166667  4.6640625 10.1595052083333  4.73102678571429 10.224609375  L 6.19754464285714 11.650390625  C 6.26450892857143 11.7154947916667  6.34151785714286 11.748046875  6.42857142857143 11.748046875  C 6.515625 11.748046875  6.59263392857143 11.7154947916667  6.65959821428571 11.650390625  L 9 9.375  L 11.3404017857143 11.650390625  C 11.4073660714286 11.7154947916667  11.484375 11.748046875  11.5714285714286 11.748046875  Z M 17.5279017857143 0.458984375000001  C 17.8426339285714 0.764973958333333  18 1.1328125  18 1.5625  L 18 13.4375  C 18 13.8671875  17.8426339285714 14.2350260416667  17.5279017857143 14.541015625  C 17.2131696428571 14.8470052083333  16.8348214285714 15  16.3928571428571 15  L 1.60714285714286 15  C 1.16517857142857 15  0.786830357142857 14.8470052083333  0.472098214285714 14.541015625  C 0.157366071428571 14.2350260416667  0 13.8671875  0 13.4375  L 0 1.5625  C 0 1.1328125  0.157366071428571 0.764973958333333  0.472098214285714 0.458984375000001  C 0.786830357142857 0.152994791666665  1.16517857142857 0  1.60714285714286 0  L 16.3928571428571 0  C 16.8348214285714 0  17.2131696428571 0.152994791666665  17.5279017857143 0.458984375000001  Z " fill-rule="nonzero" fill="#7f7f7f" stroke="none" transform="matrix(1 0 0 1 884 40 )" />
  </g>
</svg>