<?xml version="1.0" encoding="utf-8"?>
<svg version="1.1" xmlns:xlink="http://www.w3.org/1999/xlink" width="32px" height="32px" xmlns="http://www.w3.org/2000/svg">
  <defs>
    <filter x="-3px" y="-1px" width="32px" height="32px" filterUnits="userSpaceOnUse" id="filter4">
      <feOffset dx="0" dy="2" in="SourceAlpha" result="shadowOffsetInner" />
      <feGaussianBlur stdDeviation="1.5" in="shadowOffsetInner" result="shadowGaussian" />
      <feComposite in2="shadowGaussian" operator="atop" in="SourceAlpha" result="shadowComposite" />
      <feColorMatrix type="matrix" values="0 0 0 0 0.6  0 0 0 0 0.6  0 0 0 0 0.6  0 0 0 0.349019607843137 0  " in="shadowComposite" />
    </filter>
    <g id="widget5">
      <path d="M 13 0  C 20.28 0  26 5.72  26 13  C 26 20.28  20.28 26  13 26  C 5.72 26  0 20.28  0 13  C 0 5.72  5.72 0  13 0  Z " fill-rule="nonzero" fill="#ffffff" stroke="none" />
      <path d="M 13 0.5  C 20 0.5  25.5 6  25.5 13  C 25.5 20  20 25.5  13 25.5  C 6 25.5  0.5 20  0.5 13  C 0.5 6  6 0.5  13 0.5  Z " stroke-width="1" stroke="#ffffff" fill="none" />
    </g>
  </defs>
  <g transform="matrix(1 0 0 1 3 1 )">
    <use xlink:href="#widget5" filter="url(#filter4)" />
    <use xlink:href="#widget5" />
  </g>
</svg>