<?xml version="1.0" encoding="utf-8"?>
<svg version="1.1" xmlns:xlink="http://www.w3.org/1999/xlink" width="8px" height="6px" xmlns="http://www.w3.org/2000/svg">
  <g transform="matrix(1 0 0 1 -359 -923 )">
    <path d="M 1.10823529411765 0.0179347826086957  L 1.91 0.0179347826086957  L 1.91 5.99619565217391  L 1.45882352941176 5.99619565217391  L 0.0235294117647059 4.65  L 0.0235294117647059 4.36521739130435  L 1.10823529411765 4.36521739130435  L 1.10823529411765 0.0179347826086957  Z M 3.30117647058824 5.22717391304348  L 7.96470588235294 5.22717391304348  L 7.96470588235294 5.97554347826087  L 3.30117647058824 5.97554347826087  L 3.30117647058824 5.22717391304348  Z M 3.30117647058824 2.66521739130435  L 7.96470588235294 2.66521739130435  L 7.96470588235294 3.41358695652174  L 3.30117647058824 3.41358695652174  L 3.30117647058824 2.66521739130435  Z M 3.30117647058824 0.0434782608695652  L 7.96470588235294 0.0434782608695654  L 7.96470588235294 0.791847826086956  L 3.30117647058824 0.791847826086956  L 3.30117647058824 0.0434782608695652  Z " fill-rule="nonzero" fill="#f2f2f2" stroke="none" transform="matrix(1 0 0 1 359 923 )" />
  </g>
</svg>