<?xml version="1.0" encoding="utf-8"?>
<svg version="1.1" xmlns:xlink="http://www.w3.org/1999/xlink" width="10px" height="10px" xmlns="http://www.w3.org/2000/svg">
  <g transform="matrix(1 0 0 1 -38 -144 )">
    <path d="M 7.18061967329545 5.9375  L 8.21599786931818 3.94949776785714  L 1.72074751420455 3.94949776785714  L 2.7294921875 5.9375  L 7.18061967329545 5.9375  Z M 1.28351384943182 3.0078125  L 8.74755859375 3.00920758928571  L 9.86949573863636 0.853794642857142  C 9.87060546875 0.851004464285714  9.87282492897727 0.848214285714285  9.87393465909091 0.845424107142857  C 9.88836115056818 0.821707589285714  9.90167791193182 0.796595982142857  9.91388494318182 0.768694196428571  L 9.91721413352273 0.760323660714285  L 9.93718927556818 0.722656249999999  C 9.94162819602273 0.714285714285714  9.94495738636363 0.705915178571429  9.94828657670454 0.696149553571428  C 10.0181995738636 0.445033482142857  9.93275035511363 0.161830357142857  9.75408380681818 0.0571986607142855  C 9.70858487215909 0.0292968749999997  9.65975674715909 0.0167410714285712  9.60981889204545 0.0181361607142855  L 0.374644886363636 0.0181361607142855  C 0.182661576704546 0.0265066964285709  0.0272993607954546 0.245535714285714  0.0272993607954546 0.516183035714285  C 0.0272993607954546 0.584542410714285  0.0683593750000001 0.761718749999999  0.143821022727273 0.884486607142857  C 0.167125355113636 0.927734374999999  0.22705078125 1.04073660714286  0.231489701704546 1.05050223214286  L 1.19584517045455 2.94782366071429  C 1.21471058238636 2.98549107142857  1.24800248579545 3.0078125  1.28351384943182 3.0078125  Z M 6.66015625 6.98939732142857  L 3.23552911931818 6.98939732142857  L 4.57053444602273 9.62053571428571  C 4.58718039772727 9.677734375  4.61159446022727 9.72935267857143  4.64044744318182 9.77260044642857  C 4.67706853693182 9.84375  4.72922585227273 9.90513392857143  4.79248046875 9.94140625  C 4.97447620738636 10.048828125  5.18532492897727 9.93024553571429  5.26078657670455 9.67633928571429  L 6.66015625 6.98939732142857  Z " fill-rule="nonzero" fill="#5c69ff" stroke="none" transform="matrix(1 0 0 1 38 144 )" />
  </g>
</svg>