<?xml version="1.0" encoding="utf-8"?>
<svg version="1.1" xmlns:xlink="http://www.w3.org/1999/xlink" width="10px" height="3px" xmlns="http://www.w3.org/2000/svg">
  <g transform="matrix(1 0 0 1 -38 -112 )">
    <path d="M 9.41567883086623 0.0767267252604154  L 9.41757546943531 0.0767267252604154  L 5.15015015076754 2.17882882486979  C 5.04552355464746 2.23048343342721  4.92096924962886 2.23048343342721  4.81634265350877 2.17882882486979  L 0.548917334841009 0.0767267252604154  C 0.499598781189511 0.0540010769806827  0.445498249297224 0.0421942960664114  0.390684299054759 0.0421942960664114  C 0.19044070239482 0.0421942960664114  0.0281111939286629 0.196407329109261  0.0281111939286629 0.386638745936204  C 0.0281111939286629 0.511803768785829  0.0995827651543753 0.627118098476522  0.214793739720394 0.687837841796874  L 4.81539434279057 2.95600600585937  C 4.92002093891066 3.00766061441679  5.04457524392925 3.00766061441679  5.14920184004934 2.95600600585937  L 9.74980242598684 0.687837841796874  C 9.86501340055285 0.627118098476522  9.93648497177857 0.511803768785827  9.93648497177857 0.386638745936205  C 9.93648497177857 0.196407329109263  9.77415546331241 0.0421942960664149  9.57391186665247 0.0421942960664149  C 9.51909791641001 0.0421942960664149  9.46499738451772 0.0540010769806862  9.41567883086623 0.0767267252604154  Z " fill-rule="nonzero" fill="#000000" stroke="none" transform="matrix(1 0 0 1 38 112 )" />
  </g>
</svg>