<?xml version="1.0" encoding="utf-8"?>
<svg version="1.1" xmlns:xlink="http://www.w3.org/1999/xlink" width="10px" height="10px" xmlns="http://www.w3.org/2000/svg">
  <g transform="matrix(1 0 0 1 -38 -107 )">
    <path d="M 9.58479535516336 6.89477159389548  C 9.52657837202237 6.89477159389548  9.46921889489408 6.90844270483236  9.41757546943531 6.93462693643162  L 5.15015015076754 9.09062908987714  C 5.04552355464746 9.14360817557705  4.92096924962886 9.14360817557705  4.81634265350877 9.09062908987714  L 0.548917334841008 6.93462693643162  C 0.497758447828701 6.90906033894208  0.441088653419739 6.89572582727697  0.383593105994836 6.89572582727697  C 0.183857051292575 6.89572582727697  0.0218073216857474 7.05324916972591  0.0213371196546045 7.24786324786325  C 0.0212331531103678 7.37972804985785  0.0965753200750217 7.5006531306175  0.216690378289474 7.56140756877671  L 4.81729098135965 9.8877338908921  C 4.92191757287822 9.94071297080844  5.04647186996718 9.94071297080844  5.15109846148575 9.8877338908921  L 9.75169906455592 7.56140756877671  C 9.87181412277037 7.5006531306175  9.94715628973502 7.37972804985785  9.94705232319079 7.24786324786325  C 9.94705234529494 7.05280090673054  9.78486436633263 6.89477159389548  9.58479535516336 6.89477159389548  Z M 9.94705232319079 2.68730268429487  C 9.94673847867045 2.57480484561382  9.88230551015661 2.47179205516818  9.77983245956689 2.41995841680021  L 9.52347084018641 2.29029029780983  L 5.12707444147478 0.0671440638354699  C 5.03782454604264 0.0223096092243698  4.93182932251548 0.0223096092243698  4.84257942708333 0.0671440638354699  L 0.444918602658991 2.29029029780983  L 0.188556983278509 2.41995841680021  C 0.0860839326887766 2.47179205516818  0.021650964174944 2.57480484561382  0.0213371196546051 2.68730268429487  C 0.0213691949072376 2.80011324544791  0.0858327028567498 2.90353106900697  0.188556983278509 2.95557096354167  L 0.444918602658991 3.08493108974359  L 4.84131500137061 5.30807730702457  C 4.93056489680275 5.35291176163567  5.03656012032992 5.35291176163567  5.12581001576206 5.30807730702457  L 9.5234708401864 3.08585508480235  L 9.77983245956688 2.95649495860043  C 9.88285967186568 2.90430214770639  9.94737466762265 2.80044523706033  9.94705232319079 2.68730268429487  Z M 8.62565612953195 2.68807269130609  C 8.62565612953195 2.72168687947479  8.60692105988679 2.75264938168662  8.57673463199013 2.76892277644231  L 5.12707444147478 4.51343651509081  C 5.03782454604264 4.55827096970191  4.93182932251548 4.55827096970191  4.84257942708333 4.51343651509081  L 1.39165481085526 2.76892277644231  C 1.36146838295861 2.75264938168662  1.34273331331345 2.72168687947479  1.34273331331345 2.68807269130609  C 1.34273331331345 2.65445850313739  1.36146838295861 2.62349600092555  1.39165481085526 2.60722260616987  L 4.84131500137061 0.862708867521366  C 4.93056489680276 0.817874412910268  5.03656012032992 0.817874412910268  5.12581001576206 0.862708867521366  L 8.57673463199014 2.60722260616987  C 8.60692105988679 2.62349600092556  8.62565612953195 2.65445850313739  8.62565612953195 2.68807269130609  Z " fill-rule="nonzero" fill="#000000" stroke="none" transform="matrix(1 0 0 1 38 107 )" />
  </g>
</svg>