<?xml version="1.0" encoding="utf-8"?>
<svg version="1.1" xmlns:xlink="http://www.w3.org/1999/xlink" width="996px" height="201px" xmlns="http://www.w3.org/2000/svg">
  <g transform="matrix(1 0 0 1 -267 -1099 )">
    <path d="M 2.72220314851928 198  C 24.5185185185185 112.120481927711  85.8148148148148 57.2530120481928  129.829240290102 59.6385542168675  C 173.843665765388 62.0240963855422  191.666470592563 89.0921881774268  252.836050427117 81.1084337349398  C 331.660606919705 70.8203803466889  322.61164705419 16.6987951807229  375.842860564132 16.6987951807229  C 429.074074074074 16.6987951807229  437.246913580247 90.6506024096386  498.849670701147 81.1084337349398  C 560.452427822047 71.566265060241  568.012345679012 50.0963855421687  625.95670784273 31.0120481927711  C 683.901070006447 11.9277108433735  688.788310345417 -2.3855421686747  744.863290975177 16.6987951807229  C 800.938271604938 35.7831325301205  824.468597286114 83.4939759036145  867.870101112193 81.1084337349398  C 911.271604938272 78.7228915662651  968.481481481482 26.2409638554217  990.876911249208 0  " stroke-width="2" stroke="#f59a23" fill="none" transform="matrix(1 0 0 1 268 1100 )" />
  </g>
</svg>