<?xml version="1.0" encoding="utf-8"?>
<svg version="1.1" xmlns:xlink="http://www.w3.org/1999/xlink" width="1000px" height="112px" xmlns="http://www.w3.org/2000/svg">
  <g transform="matrix(1 0 0 1 -261 -1044 )">
    <path d="M 0 92.0444444444444  C 57.2049180327869 104.155555555556  77.6352459016394 111.422222222222  122.581967213115 104.155555555556  C 167.52868852459 96.8888888888889  196.257853019921 46.8620680629832  257.422131147541 38.7555555555556  C 336.239855736119 28.3093132431531  363.659836065574 62.9777777777778  392.262295081967 77.5111111111111  C 420.864754098361 92.0444444444444  453.553278688525 106.577777777778  506.672131147541 104.155555555556  C 559.790983606557 101.733333333333  554.970496071823 24.2222222222222  612.909836065574 4.84444444444445  C 670.849176059325 -14.5333333333333  695.765945090416 36.3333333333333  751.836065573771 55.7111111111111  C 807.906186057125 75.0888888888889  841.729508196721 43.6  882.590163934426 38.7555555555556  C 923.450819672131 33.9111111111111  960.225409836066 31.4888888888889  997 36.3333333333333  " stroke-width="2" stroke="#027db4" fill="none" transform="matrix(1 0 0 1 262 1045 )" />
  </g>
</svg>