<?xml version="1.0" encoding="utf-8"?>
<svg version="1.1" xmlns:xlink="http://www.w3.org/1999/xlink" width="10px" height="10px" xmlns="http://www.w3.org/2000/svg">
  <g transform="matrix(1 0 0 1 -38 -181 )">
    <path d="M 9.97159090909091 7.85412016369048  C 9.97159090909091 7.13099888392857  9.57874644886364 6.50320870535714  9.00057705965909 6.19861421130952  C 9.052734375 5.67313058035714  9.01278409090909 5.16159784226191  8.89626242897727 4.68843005952381  C 8.87073863636364 4.57914806547619  8.77308238636364 4.50474330357143  8.66432883522727 4.50474330357143  C 8.52894176136364 4.50474330357143  8.42795632102273 4.6186755952381  8.42795632102273 4.75004650297619  C 8.42795632102273 4.77213541666667  8.43239524147727 4.79422433035714  8.43794389204545 4.81747581845238  C 8.53227095170455 5.19996279761905  8.57333096590909 5.60570126488095  8.5400390625 6.02771577380952  C 8.42906605113637 6.00562686011905  8.31476384943182 5.99283854166667  8.19713245738637 5.99283854166667  C 7.21724076704546 5.99283854166667  6.42156427556818 6.82640438988095  6.42156427556818 7.85295758928572  C 6.42156427556818 8.26915922619048  6.55140269886364 8.65397135416667  6.77667791193182 8.9643787202381  C 6.34388316761364 9.22944568452381  5.85338245738637 9.40034412202381  5.33513849431818 9.45033482142857  C 4.56165660511364 9.52241443452381  3.83478338068182 9.33872767857143  3.22443181818182 8.96437872023809  C 3.44970703125 8.65397135416667  3.57954545454545 8.27032180059524  3.57954545454545 7.85295758928571  C 3.57954545454545 6.82640438988095  2.78386896306818 5.99283854166667  1.80397727272727 5.99283854166667  C 1.68523615056818 5.99283854166667  1.57204367897727 6.00562686011905  1.46107066761364 6.02771577380952  C 1.43998579545455 5.76962425595238  1.44664417613636 5.50223214285714  1.48215553977273 5.23135230654762  C 1.63418856534091 4.04552641369048  2.33664772727273 3.02129836309524  3.30988103693182 2.46558779761905  C 3.53737571022727 3.21661086309524  4.20987215909091 3.76069568452381  5 3.76069568452381  C 5.78790838068182 3.76069568452381  6.45818536931818 3.22009858630952  6.68789950284091 2.47372581845238  C 7.01970880681818 2.65973772321429  7.31711647727273 2.90271577380952  7.57346413352273 3.18522135416667  C 7.61896306818182 3.23521205357143  7.67777876420455 3.26427641369048  7.74436257102273 3.26427641369048  C 7.88640802556818 3.26427641369048  7.98073508522727 3.14220610119048  7.98073508522727 3.01432291666667  C 7.98073508522727 2.95503162202381  7.95965021306818 2.89225260416667  7.91415127840909 2.84342447916667  C 7.587890625 2.48418898809524  7.20170454545454 2.1830822172619  6.77334872159091 1.95986793154762  C 6.77556818181818 1.94010416666667  6.77556818181818 1.92034040178571  6.77556818181818 1.90057663690476  C 6.77556818181818 0.8740234375  5.97989169034091 0.0404575892857143  5 0.0404575892857143  C 4.02010830965909 0.0404575892857143  3.22443181818182 0.8740234375  3.22443181818182 1.90057663690476  C 3.22443181818182 1.92034040178571  3.22443181818182 1.94242931547619  3.22665127840909 1.96219308035714  C 1.97376598011364 2.61439732142857  1.08154296875 3.93391927083333  0.984996448863636 5.45224144345238  C 0.968350497159091 5.70568266369048  0.972789417613636 5.95563616071428  0.999422940340909 6.19861421130952  C 0.421253551136364 6.50320870535714  0.0284090909090909 7.13099888392857  0.0284090909090909 7.85295758928571  C 0.0284090909090909 8.87951078869048  0.824085582386363 9.71307663690476  1.80397727272727 9.71307663690476  C 2.20902876420455 9.71307663690476  2.58078835227273 9.57124255952381  2.87930575284091 9.32826450892857  C 3.62504438920455 9.81422061011905  4.53391335227273 10.0502232142857  5.49937855113636 9.92931547619048  C 6.08642578125 9.85491071428571  6.63796164772727 9.64448474702381  7.12069424715909 9.32942708333333  C 7.41921164772727 9.57240513392857  7.79097123579545 9.71423921130952  8.19602272727273 9.71423921130952  C 9.17591441761364 9.71423921130952  9.97159090909091 8.88067336309524  9.97159090909091 7.85412016369048  Z M 3.69717684659091 1.8994140625  C 3.69828657670455 1.8505859375  3.70050603693182 1.80059523809524  3.70494495738636 1.75409226190476  C 3.77596768465909 1.0693359375  4.32750355113636 0.535714285714286  5 0.535714285714286  C 5.67249644886364 0.535714285714286  6.22403231534091 1.06701078869048  6.29283558238636 1.75060453869048  C 6.29949396306818 1.79827008928571  6.30282315340909 1.84942336309524  6.30282315340909 1.8994140625  C 6.30282315340909 2.02613467261905  6.28617720170455 2.14704241071429  6.25510475852273 2.26097470238095  C 6.10640092329546 2.83877418154762  5.59925426136364 3.26311383928571  5 3.26311383928571  C 4.39852627840909 3.26311383928571  3.89470880681818 2.83877418154762  3.74489524147727 2.25864955357143  C 3.71382279829545 2.14471726190476  3.69717684659091 2.02264694940476  3.69717684659091 1.8994140625  Z M 3.10791015625 7.85179501488095  C 3.10569069602273 8.17034040178571  3.00137606534091 8.45982142857143  2.82936789772727 8.69117373511905  C 2.73282137784091 8.82486979166667  2.60964133522727 8.93880208333333  2.46981534090909 9.02367001488095  C 2.27561257102273 9.14806547619048  2.04811789772727 9.21665736607143  1.80508700284091 9.21665736607143  C 1.08487215909091 9.21665736607143  0.503373579545455 8.60630580357143  0.503373579545455 7.85295758928572  C 0.503373579545455 7.37630208333333  0.735307173295454 6.96010044642857  1.08598188920455 6.71712239583333  C 1.21803977272727 6.62527901785714  1.36563387784091 6.55784970238095  1.52654474431818 6.52064732142857  C 1.61643288352273 6.4985584077381  1.70854048295455 6.48809523809524  1.80619673295455 6.48809523809524  C 2.52641157670455 6.48809523809524  3.10791015625 7.09844680059524  3.10791015625 7.85179501488095  Z M 9.49884588068182 7.85412016369048  C 9.49773615056818 8.60630580357143  8.91623757102273 9.21665736607143  8.19602272727273 9.21665736607143  C 7.95188210227273 9.21665736607143  7.72438742897727 9.14690290178571  7.53129438920455 9.02367001488095  C 7.38924893465909 8.93880208333333  7.26606889204545 8.82254464285714  7.16952237215909 8.6865234375  C 6.99640447443182 8.45865885416667  6.89541903409091 8.16801525297619  6.89541903409091 7.85295758928571  C 6.89541903409091 7.09844680059524  7.47802734375 6.4892578125  8.19713245738636 6.4892578125  C 8.29145951704545 6.4892578125  8.38467684659091 6.49972098214286  8.47123579545455 6.51948474702381  C 8.63436612215909 6.55668712797619  8.78639914772727 6.62644159226191  8.91845703125 6.71828497023809  C 9.26913174715909 6.96126302083333  9.49884588068182 7.38095238095238  9.49884588068182 7.85412016369048  Z " fill-rule="nonzero" fill="#5c69ff" stroke="none" transform="matrix(1 0 0 1 38 181 )" />
  </g>
</svg>