<?xml version="1.0" encoding="utf-8"?>
<svg version="1.1" xmlns:xlink="http://www.w3.org/1999/xlink" width="4px" height="3px" xmlns="http://www.w3.org/2000/svg">
  <g transform="matrix(1 0 0 1 -43 -185 )">
    <path d="M 2 0.0474200581395349  C 0.904389880952381 0.0474200581395349  0.0152529761904762 0.697401889534884  0.0152529761904762 1.5  C 0.0152529761904762 2.30259811046512  0.904389880952381 2.9539425872093  2 2.9539425872093  C 3.09561011904762 2.9539425872093  3.98474702380953 2.30259811046512  3.98474702380953 1.5  C 3.98474702380953 0.697401889534884  3.09561011904762 0.0474200581395349  2 0.0474200581395349  Z M 2 0.627906976744186  C 2.65662202380952 0.627906976744186  3.19047619047619 1.01898619186047  3.19047619047619 1.5  C 3.19047619047619 1.98101380813953  2.65662202380952 2.37209302325581  2 2.37209302325581  C 1.34337797619048 2.37209302325581  0.80952380952381 1.98101380813953  0.80952380952381 1.5  C 0.80952380952381 1.01898619186047  1.34337797619048 0.627906976744186  2 0.627906976744186  Z " fill-rule="nonzero" fill="#5c69ff" stroke="none" transform="matrix(1 0 0 1 43 185 )" />
  </g>
</svg>