<?xml version="1.0" encoding="utf-8"?>
<svg version="1.1" xmlns:xlink="http://www.w3.org/1999/xlink" width="9px" height="9px" xmlns="http://www.w3.org/2000/svg">
  <g transform="matrix(1 0 0 1 -806 -293 )">
    <path d="M 5.64207909935128 0.241967507488185  L 0.486670290897349 5.39737632672087  L 0.0362043737341119 8.51614571645287  C 0.0335405343459272 8.53462134233747  0.0322034829626265 8.55326404516194  0.0322034829626265 8.57193072114117  C 0.0322034829626265 8.78782417683925  0.207219708844967 8.96284040272159  0.423113164543042 8.96284040272159  C 0.442928254806865 8.96284040272159  0.462714664858143 8.9613337747094  0.482301303971585 8.95833354631755  L 3.57715621569261 8.48533283235976  L 8.73141529698535 3.33130370512226  C 8.88236496931629 3.18036943368556  8.96716890699026 2.97564938739357  8.96716890699026 2.76218520334635  C 8.96716890699026 2.54872101929913  8.88236496931629 2.34400097300714  8.73141529698535 2.19306670157044  L 6.78008615962662 0.241967507488187  C 6.62915188818991 0.0910178351572502  6.42443184189793 0.00621389748327737  6.21096765785071 0.00621389748327737  C 5.99750347380349 0.00621389748327737  5.7927834275115 0.0910178351572497  5.64184915607479 0.241967507488187  Z M 0.776403346346904 8.2153752112719  L 1.13627020055772 5.72298109379752  L 6.13002636341327 0.729684817494937  C 6.17492347258785 0.684801271971508  6.24770168372177 0.684801271971508  6.29259879289635 0.729684817494937  L 8.2436979869786 2.68078401157719  L 8.25703490181114 2.69688028884258  C 8.2884856751774 2.74253541027618  8.28287716827102 2.8041323029345  8.2436979869786 2.84335644106026  L 3.24925198351484 7.83780244452403  L 0.776863243678633 8.2153752112719  Z " fill-rule="nonzero" fill="#333333" stroke="none" transform="matrix(1 0 0 1 806 293 )" />
  </g>
</svg>