<?xml version="1.0" encoding="utf-8"?>
<svg version="1.1" xmlns:xlink="http://www.w3.org/1999/xlink" width="5px" height="8px" xmlns="http://www.w3.org/2000/svg">
  <g transform="matrix(1 0 0 1 -810 -295 )">
    <path d="M 2.35254934539145 2.94851002719356  L 0.0366235833640046 0.52261944481085  L 0.52173005941427 0.0142394510068506  L 2.83788464167412 2.43989034831159  L 2.35254934539145 2.94851002719356  Z M 0.977547084494453 7.24565124780558  L 4.6387280052579 7.22216173939623  C 4.63937795698165 7.22215787173035  4.64002791788257 7.2221559378857  4.64067788009426 7.2221559378857  C 4.83024172923961 7.2221559378857  4.98391359175103 7.38312444998399  4.98391359175103 7.581689172542  C 4.98391359175103 7.76591831140582  4.85096921098804 7.9203377157343  4.67602629307534 7.93931070561426  L 4.64284683379778 7.94122820870882  L 0.981665913034335 7.96471771711817  C 0.981016001629364 7.96472158430421  0.980366081049245 7.96472351790893  0.979716159158287 7.96472351790893  C 0.790152310012937 7.96472351790893  0.636480447501523 7.80375500581064  0.636480447501523 7.60519028325263  C 0.636480447501523 7.42096118879903  0.76942476605029 7.26654180660925  0.944367635943004 7.24756876213555  L 0.977547084494453 7.24565124780558  Z " fill-rule="nonzero" fill="#333333" stroke="none" transform="matrix(1 0 0 1 810 295 )" />
  </g>
</svg>